<?xml version="1.0" standalone="no"?>
<!DOCTYPE svg PUBLIC "-//W3C//DTD SVG 20010904//EN"
 "http://www.w3.org/TR/2001/REC-SVG-20010904/DTD/svg10.dtd">
<svg version="1.0" xmlns="http://www.w3.org/2000/svg"
 width="1500.000000pt" height="903.000000pt" viewBox="0 0 1500.000000 903.000000"
 preserveAspectRatio="xMidYMid meet">

<g transform="translate(0.000000,903.000000) scale(0.100000,-0.100000)"
fill="#000000" stroke="none">
<path d="M13295 5576 c-16 -8 -42 -26 -57 -42 -22 -23 -724 -1353 -954 -1805
-83 -163 -73 -225 42 -268 116 -44 194 -23 260 69 18 25 223 412 456 860 l423
815 8 -130 c5 -90 11 -133 21 -140 7 -5 162 -91 345 -190 182 -99 331 -182
331 -185 0 -3 -158 -90 -350 -195 l-350 -189 0 -243 c0 -134 3 -243 8 -243 4
0 279 148 612 329 l605 329 2 209 3 208 -569 310 -569 309 5 51 c4 42 1 55
-18 79 -50 63 -180 95 -254 62z"/>
<path d="M828 5097 l-608 -332 0 -206 0 -205 608 -332 c335 -183 612 -332 615
-332 8 0 9 401 1 450 -6 35 -11 38 -350 225 -189 104 -340 193 -336 196 4 4
160 91 347 192 l340 185 3 246 c1 135 -1 246 -5 245 -5 0 -281 -150 -615 -332z"/>
</g>
</svg>
